<svg width="81" height="10" viewBox="0 0 81 10" fill="none" xmlns="http://www.w3.org/2000/svg">

<path fill-rule="evenodd" clip-rule="evenodd" d="M0.933228 2.10938L1.24431 0.272728H8.75283L8.44175 2.10938H5.80823L5.11627 6.3H2.87738L3.56675 2.10938H0.933228ZM2.71288 7.3L2.43323 9H4.67044L4.95115 7.3H2.71288ZM8.47319 7.3C8.50563 7.40121 8.54454 7.49912 8.58992 7.59375C8.82287 8.07671 9.19645 8.45028 9.71066 8.71449C10.2277 8.97585 10.8598 9.10653 11.607 9.10653C12.3484 9.10653 13.0217 8.97585 13.6269 8.71449C14.2348 8.45028 14.7348 8.07671 15.1269 7.59375C15.2038 7.49912 15.2752 7.40121 15.3413 7.3H8.47319ZM16.4809 7.3L16.1987 9H18.47L18.7536 7.3H16.4809ZM18.9204 6.3H16.6469L17.6475 0.272728H19.5822L22.0325 5.01136H22.1007L22.8805 0.272728H25.1518L24.1512 6.3H20.3869L19.318 4.24858H19.2626L18.9204 6.3ZM20.908 7.3L21.7938 9H23.7029L23.9852 7.3H20.908ZM24.8279 7.3L24.5457 9H26.817L27.1006 7.3H24.8279ZM28.734 6.3L27.665 4.24858H27.6096L27.2674 6.3H24.9939L25.9946 0.272728H27.9292L30.3795 5.01136H30.4477L31.2275 0.272728H33.4988L32.4982 6.3H28.734ZM29.255 7.3L30.1409 9H32.05L32.3322 7.3H29.255ZM33.175 7.3L32.8927 9H35.164L35.4463 7.3H33.175ZM36.2837 7.3L36.0015 9H38.2728L38.5559 7.3H36.2837ZM40.8784 6.3H36.4497L37.4503 0.272728H41.1535C41.804 0.272728 42.3495 0.400569 42.7898 0.656251C43.2302 0.909091 43.5441 1.26563 43.7316 1.72585C43.9219 2.18608 43.9674 2.72159 43.868 3.33239C43.7657 3.95455 43.5413 4.4929 43.1947 4.94744C42.8509 5.39915 42.4106 5.74858 41.8736 5.99574C41.5641 6.13824 41.2323 6.23966 40.8784 6.3ZM43.6553 7.3L43.373 9H47.6598H49.2111H50.1058L50.9117 7.3H43.6553ZM53.8622 7.3L54.0987 9H54.5734H56.549H57.0194L57.8253 7.3H53.8622ZM60.7758 7.3L61.0123 9H62.4709H63.4626H64.7422L65.0257 7.3H60.7758ZM66.6591 6.3L65.5902 4.24858H65.5348L65.1926 6.3H49.0058L52.0107 0.272728H55.0916L56.0533 6.03151L58.9242 0.272728H62.0052L62.9653 6.02186L63.9197 0.272728H65.8544L68.3047 5.01136H68.3728L69.1527 0.272728H71.424L70.4234 6.3H66.6591ZM67.1802 7.3L68.066 9H69.9751L70.2573 7.3H67.1802ZM46.098 6.3H43.8213L44.8219 0.272728H47.0932L46.098 6.3ZM35.6123 6.3H33.341L34.3416 0.272728H36.6129L35.6123 6.3ZM15.7887 6.3H13.4217C13.5328 6.11269 13.6054 5.90615 13.6396 5.6804L14.5388 0.272728H16.8144L15.8811 5.87642C15.8573 6.02183 15.8265 6.16302 15.7887 6.3ZM10.7274 6.3C10.6779 6.11269 10.6713 5.90615 10.7078 5.6804L11.607 0.272728H9.33566L8.40242 5.87642C8.3786 6.02183 8.36308 6.16302 8.35586 6.3H10.7274ZM39.9134 4.58949H39.0074L39.4234 2.09233H40.3353C40.6279 2.09233 40.8665 2.14347 41.0512 2.24574C41.2387 2.34517 41.3708 2.48722 41.4475 2.67188C41.5242 2.85653 41.5413 3.07671 41.4986 3.33239C41.4589 3.59091 41.3708 3.81392 41.2344 4.00142C41.0981 4.18892 40.9177 4.33381 40.6932 4.43608C40.4717 4.53835 40.2117 4.58949 39.9134 4.58949ZM60.1217 2.59943L60.5338 5.56108H58.6496L60.0535 2.59943H60.1217ZM53.2081 2.59943L53.6202 5.56108H51.736L53.1399 2.59943H53.2081ZM72.424 9.00364L72.6787 7.45847H71.1294L71.3501 6.17281H72.8907L73.1459 4.62466H74.4345L74.1793 6.17281H75.7291L75.5114 7.45847H73.9674L73.7126 9.00364H72.424ZM77.6356 9.00364L77.8903 7.45847H76.341L76.5618 6.17281H78.1023L78.3575 4.62466H79.6461L79.3909 6.17281H80.9407L80.723 7.45847H79.179L78.9242 9.00364H77.6356Z" fill="black"/>
<path fill-rule="evenodd" clip-rule="evenodd" d="M51 6.3H54V4.8H51V6.3ZM58 6.3H61V4.8H58V6.3Z" fill="black"/>
</svg>
